<svg xmlns="http://www.w3.org/2000/svg" width="24" height="24" fill="none"><path fill="#000" d="M22.91 6.546h-3.315l1.094-4.082a1.09 1.09 0 1 0-2.107-.565l-1.245 4.647H9.589l1.094-4.082A1.09 1.09 0 0 0 8.577 1.9L7.33 6.546H3.273a1.09 1.09 0 1 0 0 2.181h3.472L4.99 15.273h-3.9a1.09 1.09 0 1 0 0 2.182h3.315l-1.094 4.08a1.09 1.09 0 0 0 2.105.566l1.247-4.646h7.748l-1.094 4.08a1.091 1.091 0 0 0 2.106.566l1.246-4.646h4.058a1.09 1.09 0 1 0 0-2.182h-3.472l1.755-6.546h3.9a1.09 1.09 0 1 0 0-2.181Zm-7.914 8.727H7.248l1.755-6.546h7.748l-1.755 6.546Z"/></svg>